# xmcd
#
# Track frame offsets:
#	150
#	12340
#	26023
#	37609
#	47068
#	59938
#	75258
#	90038
#	104052
#	120267
#	135154
#	149764
#	164396
#	180048
#	194900
#
# Disc length: 2769 seconds
#
# Revision: 0
# Processed by: cddbd v1.5.2PL0 Copyright (c) Steve Scherf et al.
# Submitted via: dBpowerAMP V4.0
#
DISCID=bb0acf0f
DTITLE=Glenn Miller - Legends Forever Vol.1
DYEAR=1900
DGENRE=
TTITLE0=Kalamazoo
TTITLE1=Chattanooga Choo Choo
TTITLE2=Rainbow Rhapsody
TTITLE3=Stranger In Paradise
TTITLE4=Little Brown Jug
TTITLE5=Moonlight Serenade
TTITLE6=Pennsylvania 6-5000
TTITLE7=At Last
TTITLE8=In The Mood
TTITLE9=Indian Summer
TTITLE10=My Blue Heaven
TTITLE11=A String of Pearls
TTITLE12=Tuxedo Junction
TTITLE13=American Patrol
TTITLE14=Everybody Loves my Baby
EXTD=
EXTT0=
EXTT1=
EXTT2=
EXTT3=
EXTT4=
EXTT5=
EXTT6=
EXTT7=
EXTT8=
EXTT9=
EXTT10=
EXTT11=
EXTT12=
EXTT13=
EXTT14=
PLAYORDER=
